<svg width="640" height="500" xmlns="http://www.w3.org/2000/svg">
 <!--!Font Awesome Free 6.7.1 by @fontawesome - https://fontawesome.com License - https://fontawesome.com/license/free Copyright 2024 Fonticons, Inc.-->

 <g>
  <title>Layer 1</title>
  <path id="svg_1" d="m320,32c-8.1,0 -16.1,1.4 -23.7,4.1l-280.5,101.3c-9.5,3.5 -15.8,12.5 -15.8,22.6s6.3,19.1 15.8,22.6l57.9,20.9c-16.4,25.8 -25.7,56.3 -25.7,88.4l0,28.1c0,28.4 -10.8,57.7 -22.3,80.8c-6.5,13 -13.9,25.8 -22.5,37.6c-3.2,4.3 -4.1,9.9 -2.3,15s6,8.9 11.2,10.2l64,16c4.2,1.1 8.7,0.3 12.4,-2s6.3,-6.1 7.1,-10.4c8.6,-42.8 4.3,-81.2 -2.1,-108.7c-3.2,-14.2 -7.5,-28.7 -13.5,-42l0,-24.6c0,-30.2 10.2,-58.7 27.9,-81.5c12.9,-15.5 29.6,-28 49.2,-35.7l157,-61.7c8.2,-3.2 17.5,0.8 20.7,9s-0.8,17.5 -9,20.7l-157,61.7c-12.4,4.9 -23.3,12.4 -32.2,21.6l159.6,57.6c7.6,2.7 15.6,4.1 23.7,4.1s16.1,-1.4 23.7,-4.1l280.6,-101c9.5,-3.4 15.8,-12.5 15.8,-22.6s-6.3,-19.1 -15.8,-22.6l-280.5,-101.3c-7.6,-2.7 -15.6,-4.1 -23.7,-4.1zm-192,376c0,35.3 86,72 192,72s192,-36.7 192,-72l-15.3,-145.4l-142.2,51.4c-11.1,4 -22.8,6 -34.5,6s-23.5,-2 -34.5,-6l-142.2,-51.4l-15.3,145.4z"/>
 </g>
</svg>